<mxfile host="65bd71144e">
    <diagram name="Page-1" id="ybB0zNClBuQeska8s1t8">
        <mxGraphModel dx="810" dy="767" grid="0" gridSize="10" guides="1" tooltips="1" connect="1" arrows="1" fold="1" page="1" pageScale="1" pageWidth="850" pageHeight="1100" background="#007CFA" math="0" shadow="0">
            <root>
                <mxCell id="0"/>
                <mxCell id="1" parent="0"/>
                <mxCell id="KwJWBXyv7zKBj7kIPoLX-2" value="RDS" style="shape=datastore;whiteSpace=wrap;html=1;fontStyle=1;fontSize=25;fillColor=#006600;" parent="1" vertex="1">
                    <mxGeometry x="100" y="503" width="130" height="140" as="geometry"/>
                </mxCell>
                <mxCell id="KwJWBXyv7zKBj7kIPoLX-4" value="Application Static files (Front End)&lt;br&gt;Hosted on s3 Bucket" style="sketch=0;outlineConnect=0;fontColor=#000000;gradientColor=none;fillColor=#CC0000;strokeColor=none;dashed=0;verticalLabelPosition=bottom;verticalAlign=top;align=center;html=1;fontSize=18;fontStyle=1;aspect=fixed;pointerEvents=1;shape=mxgraph.aws4.bucket;labelBackgroundColor=none;" parent="1" vertex="1">
                    <mxGeometry x="560" y="40" width="142.31" height="148" as="geometry"/>
                </mxCell>
                <mxCell id="KwJWBXyv7zKBj7kIPoLX-5" value="AWS Elastic Beanstalk" style="sketch=0;outlineConnect=0;fontColor=#232F3E;gradientColor=none;strokeColor=#ffffff;fillColor=#FF9933;dashed=0;verticalLabelPosition=middle;verticalAlign=bottom;align=center;html=1;whiteSpace=wrap;fontSize=18;fontStyle=1;spacing=3;shape=mxgraph.aws4.productIcon;prIcon=mxgraph.aws4.elastic_beanstalk;" parent="1" vertex="1">
                    <mxGeometry x="425" y="458" width="170" height="230" as="geometry"/>
                </mxCell>
                <mxCell id="KwJWBXyv7zKBj7kIPoLX-7" style="edgeStyle=orthogonalEdgeStyle;rounded=0;orthogonalLoop=1;jettySize=auto;html=1;exitX=0.75;exitY=0;exitDx=0;exitDy=0;entryX=0.5;entryY=1;entryDx=0;entryDy=0;fontSize=18;" parent="1" source="KwJWBXyv7zKBj7kIPoLX-6" target="KwJWBXyv7zKBj7kIPoLX-2" edge="1">
                    <mxGeometry relative="1" as="geometry"/>
                </mxCell>
                <mxCell id="KwJWBXyv7zKBj7kIPoLX-6" value="Relational Database" style="whiteSpace=wrap;html=1;fontSize=18;" parent="1" vertex="1">
                    <mxGeometry x="105" y="700" width="120" height="60" as="geometry"/>
                </mxCell>
                <mxCell id="KwJWBXyv7zKBj7kIPoLX-9" value="save data" style="endArrow=classic;fontSize=22;entryX=1;entryY=0.3;entryDx=0;entryDy=0;labelBackgroundColor=none;fontColor=#000000;strokeColor=default;html=1;rounded=0;" parent="1" target="KwJWBXyv7zKBj7kIPoLX-2" edge="1">
                    <mxGeometry width="50" height="50" relative="1" as="geometry">
                        <mxPoint x="417" y="543" as="sourcePoint"/>
                        <mxPoint x="450" y="420" as="targetPoint"/>
                    </mxGeometry>
                </mxCell>
                <mxCell id="KwJWBXyv7zKBj7kIPoLX-11" value="retrieve data" style="endArrow=classic;html=1;rounded=0;fontSize=22;exitX=1;exitY=0.757;exitDx=0;exitDy=0;exitPerimeter=0;labelBackgroundColor=none;fontColor=#000000;strokeColor=#FFFFFF;" parent="1" source="KwJWBXyv7zKBj7kIPoLX-2" edge="1">
                    <mxGeometry width="50" height="50" relative="1" as="geometry">
                        <mxPoint x="400" y="623" as="sourcePoint"/>
                        <mxPoint x="421" y="609" as="targetPoint"/>
                    </mxGeometry>
                </mxCell>
                <mxCell id="KwJWBXyv7zKBj7kIPoLX-14" value="contains all server code&lt;br&gt;(backend)" style="shape=dataStorage;whiteSpace=wrap;html=1;fixedSize=1;fontSize=18;labelBackgroundColor=none;" parent="1" vertex="1">
                    <mxGeometry x="610" y="570" width="190" height="80" as="geometry"/>
                </mxCell>
                <mxCell id="KwJWBXyv7zKBj7kIPoLX-15" value="" style="shape=actor;whiteSpace=wrap;html=1;fontSize=18;" parent="1" vertex="1">
                    <mxGeometry x="65" y="30" width="40" height="60" as="geometry"/>
                </mxCell>
                <mxCell id="KwJWBXyv7zKBj7kIPoLX-16" value="" style="shape=mxgraph.cisco.computers_and_peripherals.laptop;html=1;pointerEvents=1;dashed=0;fillColor=#006666;strokeColor=#ffffff;strokeWidth=2;verticalLabelPosition=bottom;verticalAlign=top;align=center;outlineConnect=0;fontSize=18;" parent="1" vertex="1">
                    <mxGeometry x="155" y="30" width="90" height="61" as="geometry"/>
                </mxCell>
                <mxCell id="KwJWBXyv7zKBj7kIPoLX-17" value="" style="shape=actor;whiteSpace=wrap;html=1;fontSize=18;" parent="1" vertex="1">
                    <mxGeometry x="65" y="140" width="40" height="60" as="geometry"/>
                </mxCell>
                <mxCell id="KwJWBXyv7zKBj7kIPoLX-18" value="" style="fontColor=#0066CC;verticalAlign=top;verticalLabelPosition=bottom;labelPosition=center;align=center;html=1;outlineConnect=0;fillColor=#99004D;strokeColor=#6881B3;gradientColor=none;gradientDirection=north;strokeWidth=2;shape=mxgraph.networks.virtual_pc;fontSize=18;" parent="1" vertex="1">
                    <mxGeometry x="142.5" y="127.5" width="115" height="85" as="geometry"/>
                </mxCell>
                <mxCell id="KwJWBXyv7zKBj7kIPoLX-19" value="" style="curved=1;endArrow=classic;html=1;rounded=0;fontSize=18;" parent="1" source="KwJWBXyv7zKBj7kIPoLX-16" target="KwJWBXyv7zKBj7kIPoLX-4" edge="1">
                    <mxGeometry width="50" height="50" relative="1" as="geometry">
                        <mxPoint x="400" y="450" as="sourcePoint"/>
                        <mxPoint x="450" y="400" as="targetPoint"/>
                        <Array as="points">
                            <mxPoint x="380" y="70"/>
                            <mxPoint x="440" y="30"/>
                        </Array>
                    </mxGeometry>
                </mxCell>
                <mxCell id="KwJWBXyv7zKBj7kIPoLX-20" value="" style="curved=1;endArrow=classic;html=1;rounded=0;fontSize=18;exitX=1;exitY=0.5;exitDx=0;exitDy=0;exitPerimeter=0;" parent="1" source="KwJWBXyv7zKBj7kIPoLX-18" target="KwJWBXyv7zKBj7kIPoLX-4" edge="1">
                    <mxGeometry width="50" height="50" relative="1" as="geometry">
                        <mxPoint x="400" y="450" as="sourcePoint"/>
                        <mxPoint x="450" y="400" as="targetPoint"/>
                        <Array as="points">
                            <mxPoint x="390" y="140"/>
                            <mxPoint x="410" y="210"/>
                        </Array>
                    </mxGeometry>
                </mxCell>
                <mxCell id="KwJWBXyv7zKBj7kIPoLX-21" value="" style="html=1;verticalLabelPosition=bottom;align=center;labelBackgroundColor=#ffffff;verticalAlign=top;strokeWidth=2;strokeColor=#0056A1;shadow=0;dashed=0;shape=mxgraph.ios7.icons.link;fontSize=18;rotation=-90;fontColor=#000000;labelBorderColor=default;" parent="1" vertex="1">
                    <mxGeometry x="520" y="370" width="50" height="40" as="geometry"/>
                </mxCell>
                <mxCell id="KwJWBXyv7zKBj7kIPoLX-22" value="fetches data" style="endArrow=none;dashed=1;html=1;dashPattern=1 3;strokeWidth=2;rounded=0;fontSize=25;exitX=0.471;exitY=0;exitDx=0;exitDy=0;exitPerimeter=0;fontStyle=0;labelBackgroundColor=none;fontColor=#000000;strokeColor=#000000;" parent="1" source="KwJWBXyv7zKBj7kIPoLX-5" edge="1">
                    <mxGeometry x="0.4207" y="3" width="50" height="50" relative="1" as="geometry">
                        <mxPoint x="390" y="450" as="sourcePoint"/>
                        <mxPoint x="620" y="240" as="targetPoint"/>
                        <mxPoint as="offset"/>
                    </mxGeometry>
                </mxCell>
            </root>
        </mxGraphModel>
    </diagram>
</mxfile>